<svg xmlns="http://www.w3.org/2000/svg" viewBox="0 0 64 64" role="img" aria-label="Harbor Lane Plumbing mark">
  <rect x="4" y="4" width="56" height="56" rx="8" fill="#1a2f4a"/>
  <path fill="#b87333" d="M18 42c0-10 7-18 14-18s14 8 14 18v6H18v-6z"/>
  <path fill="#e8c9a8" d="M24 26h16v5H24zm3 9h10v3H27zm-3 12h16v5H24z"/>
  <path fill="#b87333" d="M32 14c4.4 0 8 3.6 8 8s-3.6 8-8 8-8-3.6-8-8 3.6-8 8-8z"/>
  <path fill="#f5f0e8" d="M30 18h4v8h-4zm-2 10h8v2h-8z"/>
  <rect x="14" y="46" width="36" height="4" rx="1" fill="#b87333"/>
  <path fill="none" stroke="#e8c9a8" stroke-width="2" d="M12 50h40"/>
</svg>